<svg width="386" height="230" viewBox="0 0 386 230" fill="none" xmlns="http://www.w3.org/2000/svg">
<g opacity="0.4">
<mask id="mask0_122_141" style="mask-type:alpha" maskUnits="userSpaceOnUse" x="40" y="-33" width="298" height="297">
<rect x="40" y="30" width="243" height="242" transform="rotate(-15 40 30)" fill="#D9D9D9"/>
</mask>
<g mask="url(#mask0_122_141)">
<path d="M198.143 185.967L215.258 181.381L211.996 169.207C219.755 165.562 225.915 160.518 230.478 154.076C235.042 147.634 236.04 139.624 233.474 130.047C231.647 123.229 228.016 117.503 222.582 112.87C217.148 108.237 207.997 105.382 195.13 104.306C184.48 103.68 176.954 102.652 172.553 101.222C168.152 99.7912 165.385 96.9657 164.255 92.7451C163.124 88.5246 163.741 84.7924 166.108 81.5486C168.467 78.3065 172.5 75.9212 178.205 74.3925C183.421 72.9949 187.833 73.1627 191.442 74.8959C195.05 76.6225 198.006 79.178 200.31 82.5621L214.262 72.0384C210.946 66.8373 206.321 62.7703 200.384 59.8373C194.442 56.9061 188.471 55.9831 182.473 57.0684L179.211 44.8937L162.096 49.4797L165.358 61.6544C157.686 65.6238 152.286 70.8984 149.157 77.4782C146.029 84.058 145.356 90.6756 147.14 97.3311C149.184 104.961 153.08 110.528 158.827 114.034C164.567 117.541 172.703 119.711 183.233 120.543C194.503 121.525 202.527 122.941 207.307 124.792C212.08 126.645 215.097 129.925 216.359 134.633C217.794 139.99 216.932 144.438 213.771 147.978C210.619 151.523 206.353 154.016 200.974 155.457C195.595 156.899 190.383 156.51 185.337 154.292C180.287 152.082 175.892 147.912 172.152 141.78L157.712 152.435C162.082 159.615 167.314 164.957 173.41 168.459C179.498 171.957 186.611 173.573 194.751 173.306L198.143 185.967ZM214.774 212.828C201.245 216.453 187.846 217.302 174.576 215.373C161.308 213.451 149.098 209.287 137.947 202.88C126.797 196.472 117.068 188.031 108.762 177.556C100.449 167.083 94.4871 155.109 90.8769 141.636C87.2667 128.163 86.4429 114.813 88.4055 101.586C90.3615 88.361 94.5661 76.1864 101.019 65.0621C107.473 53.9378 115.963 44.2232 126.491 35.9183C137.021 27.6198 149.05 21.6581 162.579 18.033C176.108 14.4079 189.507 13.5562 202.775 15.478C216.045 17.4063 228.256 21.5741 239.406 27.9814C250.557 34.3887 260.286 42.8299 268.592 53.305C276.905 63.7784 282.867 75.7517 286.477 89.2251C290.087 102.698 290.911 116.048 288.948 129.275C286.992 142.5 282.788 154.675 276.334 165.799C269.881 176.923 261.39 186.635 250.86 194.933C240.332 203.238 228.303 209.203 214.774 212.828Z" fill="#47A055"/>
</g>
</g>
<path d="M5.632 155V107.32H10.112L38.08 147.448H36.352V107.32H41.472V155H36.992L9.024 114.616H10.752V155H5.632ZM52.757 169.08C52.0743 169.08 51.3703 169.016 50.645 168.888C49.9623 168.803 49.2797 168.632 48.597 168.376V163.896C49.0237 163.939 49.557 164.003 50.197 164.088C50.8797 164.216 51.5623 164.28 52.245 164.28C54.3357 164.28 55.9357 163.832 57.045 162.936C58.1543 162.083 59.2423 160.419 60.309 157.944L62.485 152.824L62.357 157.048L47.829 120.696H53.013L64.917 150.712H63.573L75.413 120.696H80.725L65.045 159.352C64.3623 161.016 63.4877 162.595 62.421 164.088C61.397 165.581 60.0957 166.776 58.517 167.672C56.9383 168.611 55.0183 169.08 52.757 169.08ZM98.5255 155.768C96.1362 155.768 93.9602 155.213 91.9975 154.104C90.0348 152.952 88.4775 151.373 87.3255 149.368C86.2162 147.32 85.6615 144.973 85.6615 142.328V120.696H90.4615V141.752C90.4615 143.587 90.8242 145.208 91.5495 146.616C92.3175 147.981 93.3628 149.048 94.6855 149.816C96.0508 150.584 97.6082 150.968 99.3575 150.968C101.107 150.968 102.664 150.584 104.03 149.816C105.395 149.005 106.462 147.875 107.23 146.424C107.998 144.931 108.382 143.16 108.382 141.112V120.696H113.182V155H108.382V148.344L109.47 148.6C108.659 150.819 107.272 152.568 105.31 153.848C103.347 155.128 101.086 155.768 98.5255 155.768ZM123.053 155V120.696H127.853V127.224L127.085 126.264C128.024 124.259 129.41 122.701 131.245 121.592C133.122 120.483 135.17 119.928 137.389 119.928C140.034 119.928 142.424 120.675 144.557 122.168C146.69 123.661 148.205 125.603 149.101 127.992L147.757 128.056C148.61 125.411 150.082 123.405 152.173 122.04C154.306 120.632 156.653 119.928 159.213 119.928C161.517 119.928 163.629 120.483 165.549 121.592C167.512 122.701 169.069 124.237 170.221 126.2C171.416 128.12 172.013 130.296 172.013 132.728V155H167.213V134.584C167.213 132.493 166.829 130.723 166.061 129.272C165.336 127.821 164.333 126.712 163.053 125.944C161.773 125.133 160.301 124.728 158.637 124.728C157.016 124.728 155.544 125.133 154.221 125.944C152.898 126.712 151.853 127.843 151.085 129.336C150.317 130.787 149.933 132.536 149.933 134.584V155H145.133V134.584C145.133 132.493 144.749 130.723 143.981 129.272C143.256 127.821 142.253 126.712 140.973 125.944C139.693 125.133 138.221 124.728 136.557 124.728C134.893 124.728 133.4 125.133 132.077 125.944C130.797 126.712 129.773 127.843 129.005 129.336C128.237 130.787 127.853 132.536 127.853 134.584V155H123.053ZM198.522 155.768C195.578 155.768 192.911 155.107 190.522 153.784C188.175 152.419 186.405 150.499 185.21 148.024L185.978 147.32V155H181.178V106.552H185.978V128.376L185.21 127.032C186.575 124.856 188.389 123.128 190.65 121.848C192.954 120.568 195.578 119.928 198.522 119.928C201.765 119.928 204.645 120.717 207.162 122.296C209.722 123.832 211.727 125.944 213.178 128.632C214.671 131.32 215.418 134.392 215.418 137.848C215.418 141.261 214.671 144.333 213.178 147.064C211.727 149.752 209.722 151.885 207.162 153.464C204.645 155 201.765 155.768 198.522 155.768ZM198.266 150.968C200.57 150.968 202.618 150.392 204.41 149.24C206.245 148.088 207.674 146.531 208.698 144.568C209.765 142.563 210.298 140.323 210.298 137.848C210.298 135.331 209.765 133.091 208.698 131.128C207.674 129.165 206.245 127.608 204.41 126.456C202.618 125.304 200.57 124.728 198.266 124.728C195.962 124.728 193.871 125.304 191.994 126.456C190.159 127.608 188.687 129.187 187.578 131.192C186.511 133.155 185.978 135.373 185.978 137.848C185.978 140.323 186.511 142.563 187.578 144.568C188.687 146.531 190.159 148.088 191.994 149.24C193.871 150.392 195.962 150.968 198.266 150.968ZM233.786 155.768C231.61 155.768 229.668 155.363 227.962 154.552C226.255 153.699 224.911 152.547 223.93 151.096C222.948 149.645 222.458 147.981 222.458 146.104C222.458 144.312 222.842 142.691 223.61 141.24C224.378 139.747 225.572 138.488 227.194 137.464C228.815 136.44 230.884 135.715 233.402 135.288L246.842 133.048V137.4L234.554 139.448C232.079 139.875 230.287 140.664 229.178 141.816C228.111 142.968 227.578 144.333 227.578 145.912C227.578 147.448 228.175 148.749 229.37 149.816C230.607 150.883 232.186 151.416 234.106 151.416C236.452 151.416 238.5 150.925 240.25 149.944C241.999 148.92 243.364 147.555 244.346 145.848C245.327 144.141 245.818 142.243 245.818 140.152V131.448C245.818 129.4 245.071 127.736 243.578 126.456C242.084 125.176 240.143 124.536 237.753 124.536C235.663 124.536 233.828 125.069 232.25 126.136C230.671 127.16 229.498 128.504 228.73 130.168L224.378 127.8C225.018 126.349 226.02 125.027 227.385 123.832C228.794 122.637 230.394 121.699 232.186 121.016C233.978 120.291 235.834 119.928 237.753 119.928C240.271 119.928 242.49 120.419 244.41 121.4C246.372 122.381 247.887 123.747 248.954 125.496C250.063 127.203 250.618 129.187 250.618 131.448V155H245.818V148.152L246.522 148.856C245.924 150.136 244.986 151.309 243.706 152.376C242.468 153.4 240.996 154.232 239.29 154.872C237.626 155.469 235.791 155.768 233.786 155.768ZM260.491 155V120.696H265.291V127.352L264.203 127.096C265.056 124.877 266.443 123.128 268.363 121.848C270.325 120.568 272.587 119.928 275.147 119.928C277.579 119.928 279.755 120.483 281.675 121.592C283.637 122.701 285.173 124.237 286.283 126.2C287.435 128.12 288.011 130.296 288.011 132.728V155H283.211V134.584C283.211 132.493 282.827 130.723 282.059 129.272C281.333 127.821 280.288 126.712 278.923 125.944C277.6 125.133 276.064 124.728 274.315 124.728C272.565 124.728 271.008 125.133 269.643 125.944C268.277 126.712 267.211 127.843 266.443 129.336C265.675 130.787 265.291 132.536 265.291 134.584V155H260.491ZM313.434 169.08C311.087 169.08 308.911 168.717 306.906 167.992C304.943 167.267 303.237 166.264 301.786 164.984C300.378 163.747 299.29 162.296 298.522 160.632L302.938 158.264C303.621 159.885 304.837 161.293 306.586 162.488C308.335 163.683 310.575 164.28 313.306 164.28C315.397 164.28 317.317 163.875 319.066 163.064C320.815 162.253 322.223 161.059 323.29 159.48C324.357 157.901 324.89 155.96 324.89 153.656V146.04L325.658 146.744C324.463 149.219 322.693 151.139 320.346 152.504C317.999 153.827 315.439 154.488 312.666 154.488C309.466 154.488 306.586 153.72 304.026 152.184C301.466 150.648 299.439 148.579 297.946 145.976C296.495 143.331 295.77 140.408 295.77 137.208C295.77 133.965 296.495 131.043 297.946 128.44C299.439 125.837 301.445 123.768 303.962 122.232C306.522 120.696 309.423 119.928 312.666 119.928C315.439 119.928 317.957 120.568 320.218 121.848C322.522 123.128 324.335 124.856 325.658 127.032L324.89 128.376V120.696H329.69V153.656C329.69 156.6 328.986 159.224 327.578 161.528C326.213 163.875 324.293 165.709 321.818 167.032C319.386 168.397 316.591 169.08 313.434 169.08ZM312.922 149.688C315.141 149.688 317.146 149.133 318.938 148.024C320.73 146.872 322.159 145.357 323.226 143.48C324.335 141.56 324.89 139.469 324.89 137.208C324.89 134.947 324.335 132.877 323.226 131C322.159 129.08 320.73 127.565 318.938 126.456C317.146 125.304 315.141 124.728 312.922 124.728C310.661 124.728 308.613 125.304 306.778 126.456C304.943 127.565 303.493 129.059 302.426 130.936C301.402 132.813 300.89 134.904 300.89 137.208C300.89 139.469 301.402 141.56 302.426 143.48C303.493 145.357 304.922 146.872 306.714 148.024C308.549 149.133 310.618 149.688 312.922 149.688ZM339.553 155V120.696H344.353V155H339.553ZM339.553 114.36V107.32H344.353V114.36H339.553ZM354.178 155V120.696H358.978V127.352L357.89 127.096C358.743 124.877 360.13 123.128 362.05 121.848C364.013 120.568 366.274 119.928 368.834 119.928C371.266 119.928 373.442 120.483 375.362 121.592C377.325 122.701 378.861 124.237 379.97 126.2C381.122 128.12 381.698 130.296 381.698 132.728V155H376.898V134.584C376.898 132.493 376.514 130.723 375.746 129.272C375.021 127.821 373.975 126.712 372.61 125.944C371.287 125.133 369.751 124.728 368.002 124.728C366.253 124.728 364.695 125.133 363.33 125.944C361.965 126.712 360.898 127.843 360.13 129.336C359.362 130.787 358.978 132.536 358.978 134.584V155H354.178Z" fill="white"/>
</svg>
